<svg xmlns="http://www.w3.org/2000/svg" xmlns:xlink="http://www.w3.org/1999/xlink" width="300" zoomAndPan="magnify" viewBox="0 0 224.87999 225" height="300" preserveAspectRatio="xMidYMid meet" version="1.0"><defs><g/></defs><path fill="#ebcab3" d="M 27.625 32.019531 C 52.511719 12.609375 94.121094 8.085938 114.066406 15.175781 C 134.015625 22.269531 146.871094 32.019531 149.976562 46.207031 C 153.078125 60.394531 159.730469 65.710938 171.699219 67.042969 C 183.664062 68.371094 203.613281 73.691406 213.367188 89.207031 C 223.121094 104.722656 228.441406 126.445312 217.355469 141.074219 C 206.273438 155.703125 195.191406 151.710938 187.210938 154.371094 C 179.234375 157.03125 172.585938 169 160.617188 181.855469 C 148.644531 194.714844 122.972656 215.875 84.367188 216.433594 C 53.78125 216.878906 22.304688 193.828125 20.976562 169.445312 C 19.644531 145.0625 26.296875 135.753906 16.984375 125.558594 C 7.675781 115.363281 0.0507812 108.195312 0.582031 81.671875 C 1.027344 59.507812 16.542969 40.664062 27.625 32.019531 " fill-opacity="1" fill-rule="nonzero"/><g fill="#ebcab3" fill-opacity="1"><g transform="translate(111.104765, 116.248005)"><g><path d="M 0.734375 -0.515625 C 0.734375 -0.734375 0.78125 -0.898438 0.875 -1.015625 C 0.976562 -1.128906 1.125 -1.1875 1.3125 -1.1875 C 1.5 -1.1875 1.644531 -1.128906 1.75 -1.015625 C 1.863281 -0.898438 1.921875 -0.734375 1.921875 -0.515625 C 1.921875 -0.304688 1.863281 -0.144531 1.75 -0.03125 C 1.644531 0.0820312 1.5 0.140625 1.3125 0.140625 C 1.144531 0.140625 1.003906 0.0859375 0.890625 -0.015625 C 0.785156 -0.117188 0.734375 -0.285156 0.734375 -0.515625 Z M 0.734375 -0.515625 "/></g></g></g></svg>