<svg xmlns="http://www.w3.org/2000/svg" xmlns:xlink="http://www.w3.org/1999/xlink" width="40" zoomAndPan="magnify" viewBox="0 0 30 30.000001" height="40" preserveAspectRatio="xMidYMid meet" version="1.0"><defs><g/><clipPath id="b61dce165f"><path d="M 3.097656 0.691406 L 27 0.691406 L 27 28.996094 L 3.097656 28.996094 Z M 3.097656 0.691406 " clip-rule="nonzero"/></clipPath></defs><g clip-path="url(#b61dce165f)"><path fill="#ffffff" d="M 24.058594 8.28125 C 24.03125 8.152344 23.914062 8.058594 23.785156 8.058594 L 21.234375 8.058594 L 21.234375 5.226562 C 21.234375 2.726562 19.199219 0.691406 16.699219 0.691406 C 15.988281 0.691406 15.316406 0.863281 14.714844 1.15625 C 14.117188 0.863281 13.445312 0.691406 12.730469 0.691406 C 10.230469 0.691406 8.199219 2.726562 8.199219 5.226562 L 8.199219 8.058594 L 5.699219 8.058594 C 5.566406 8.058594 5.453125 8.152344 5.421875 8.28125 C 3.910156 14.839844 3.398438 22.300781 3.097656 28.734375 C 3.09375 28.8125 3.121094 28.886719 3.175781 28.941406 C 3.226562 29 3.300781 29.03125 3.378906 29.03125 L 22.117188 29.027344 L 26.652344 28.460938 C 26.800781 28.445312 26.90625 28.316406 26.902344 28.167969 C 26.601562 21.769531 25.671875 15.265625 24.058594 8.28125 Z M 26.300781 27.59375 C 25.375 27.042969 24.441406 26.273438 24.433594 26.261719 C 24.367188 26.210938 24.285156 26.1875 24.203125 26.203125 C 24.121094 26.214844 24.050781 26.265625 24.007812 26.335938 C 24.003906 26.347656 23.4375 27.265625 22.339844 28.183594 C 22.039062 21.988281 21.527344 14.917969 20.113281 8.628906 L 23.558594 8.628906 C 25.082031 15.277344 25.980469 21.492188 26.300781 27.59375 Z M 25.859375 27.988281 L 23.015625 28.347656 C 23.660156 27.761719 24.09375 27.210938 24.316406 26.894531 C 24.636719 27.148438 25.234375 27.601562 25.859375 27.988281 Z M 16.699219 1.257812 C 18.886719 1.257812 20.667969 3.039062 20.667969 5.226562 L 20.667969 8.058594 L 17.265625 8.058594 L 17.265625 5.226562 C 17.265625 3.691406 16.496094 2.332031 15.324219 1.511719 C 15.753906 1.351562 16.214844 1.257812 16.699219 1.257812 Z M 16.699219 8.058594 L 12.730469 8.058594 L 12.730469 5.226562 C 12.730469 3.761719 13.53125 2.484375 14.714844 1.796875 C 15.898438 2.484375 16.699219 3.761719 16.699219 5.226562 Z M 8.765625 5.226562 C 8.765625 3.039062 10.542969 1.257812 12.730469 1.257812 C 13.214844 1.257812 13.679688 1.351562 14.109375 1.511719 C 12.933594 2.332031 12.164062 3.691406 12.164062 5.226562 L 12.164062 8.058594 L 8.765625 8.058594 Z M 5.925781 8.628906 L 8.199219 8.628906 L 8.199219 10.609375 C 8.199219 10.765625 8.324219 10.894531 8.480469 10.894531 C 8.636719 10.894531 8.765625 10.765625 8.765625 10.609375 L 8.765625 8.628906 L 16.699219 8.628906 L 16.699219 10.609375 C 16.699219 10.765625 16.824219 10.894531 16.984375 10.894531 C 17.140625 10.894531 17.265625 10.765625 17.265625 10.609375 L 17.265625 8.628906 L 19.535156 8.628906 C 20.976562 14.992188 21.488281 22.195312 21.785156 28.464844 L 3.675781 28.464844 C 3.976562 22.195312 4.480469 14.988281 5.925781 8.628906 Z M 17.304688 16.179688 C 16.8125 15.390625 16.050781 14.914062 15.210938 14.871094 C 13.820312 14.796875 13.078125 15.425781 12.730469 15.882812 C 12.382812 15.425781 11.644531 14.796875 10.253906 14.871094 C 9.414062 14.914062 8.652344 15.390625 8.160156 16.179688 C 7.484375 17.257812 7.445312 18.683594 8.042969 20.089844 C 9.175781 22.742188 12.5 23.867188 12.644531 23.914062 C 12.671875 23.925781 12.703125 23.929688 12.730469 23.929688 C 12.761719 23.929688 12.792969 23.925781 12.820312 23.914062 C 12.960938 23.867188 16.285156 22.742188 17.417969 20.089844 C 18.019531 18.683594 17.976562 17.257812 17.304688 16.179688 Z M 16.898438 19.867188 C 15.964844 22.054688 13.257812 23.148438 12.730469 23.34375 C 12.207031 23.148438 9.5 22.054688 8.566406 19.867188 C 8.039062 18.636719 8.066406 17.398438 8.640625 16.476562 C 9.03125 15.847656 9.632812 15.46875 10.28125 15.433594 C 10.34375 15.433594 10.40625 15.429688 10.46875 15.429688 C 12.015625 15.429688 12.449219 16.492188 12.464844 16.539062 C 12.550781 16.761719 12.914062 16.761719 12.996094 16.539062 C 13 16.527344 13.464844 15.339844 15.179688 15.433594 C 15.832031 15.46875 16.429688 15.847656 16.824219 16.476562 C 17.398438 17.398438 17.425781 18.636719 16.898438 19.867188 Z M 16.898438 19.867188 " fill-opacity="1" fill-rule="nonzero"/></g><g fill="#ffffff" fill-opacity="1"><g transform="translate(5.424393, 20.141936)"><g><path d="M 0.0625 -0.03125 C 0.0625 -0.0507812 0.0625 -0.0664062 0.0625 -0.078125 C 0.0703125 -0.0859375 0.0820312 -0.09375 0.09375 -0.09375 C 0.113281 -0.09375 0.125 -0.0859375 0.125 -0.078125 C 0.132812 -0.0664062 0.140625 -0.0507812 0.140625 -0.03125 C 0.140625 -0.0195312 0.132812 -0.0078125 0.125 0 C 0.125 0.0078125 0.113281 0.015625 0.09375 0.015625 C 0.0820312 0.015625 0.0703125 0.0078125 0.0625 0 C 0.0625 -0.0078125 0.0625 -0.0195312 0.0625 -0.03125 Z M 0.0625 -0.03125 "/></g></g></g></svg>