<svg xmlns="http://www.w3.org/2000/svg" xmlns:xlink="http://www.w3.org/1999/xlink" width="100" zoomAndPan="magnify" viewBox="0 0 75 74.999997" height="100" preserveAspectRatio="xMidYMid meet" version="1.0"><defs><g/><clipPath id="c6ca27ac51"><path d="M 0 6.046875 L 75 6.046875 L 75 69 L 0 69 Z M 0 6.046875 " clip-rule="nonzero"/></clipPath></defs><g clip-path="url(#c6ca27ac51)"><path fill="#d2042d" d="M 49.59375 58.355469 C 51.449219 56.957031 53.363281 55.621094 55.148438 54.136719 C 58.039062 51.742188 60.835938 49.246094 63.683594 46.792969 C 64.066406 46.480469 64.464844 46.191406 64.878906 45.921875 C 64.914062 45.894531 65.03125 45.945312 65.082031 45.992188 C 65.132812 46.042969 65.15625 46.152344 65.128906 46.191406 C 64.773438 46.75 64.371094 47.277344 63.929688 47.773438 C 62.253906 49.402344 60.605469 51.066406 58.824219 52.574219 C 53.222656 57.320312 47.5 61.921875 41.421875 66.054688 C 40.773438 66.457031 40.261719 66.984375 39.878906 67.644531 C 39.332031 68.648438 38.378906 68.964844 37.414062 68.511719 C 36.972656 68.277344 36.5625 67.988281 36.191406 67.652344 C 35.039062 66.691406 33.910156 65.695312 32.757812 64.738281 C 29.746094 62.234375 26.726562 59.734375 23.425781 57.601562 C 19.707031 55.203125 16.328125 52.328125 13.027344 49.382812 C 9.796875 46.449219 6.941406 43.191406 4.464844 39.601562 C 2.703125 37.128906 1.460938 34.421875 0.730469 31.472656 C 0.0703125 28.835938 0.0429688 26.191406 0.652344 23.542969 C 1.75 18.773438 4.6875 15.753906 9.53125 14.789062 C 11.734375 14.351562 13.929688 13.914062 16.117188 13.375 C 17.226562 13.113281 18.347656 13.042969 19.480469 13.164062 C 20.613281 13.285156 21.695312 13.589844 22.726562 14.078125 C 24.386719 14.832031 25.972656 15.761719 27.59375 16.617188 C 27.800781 16.753906 28.015625 16.878906 28.242188 16.984375 C 28.398438 17.039062 28.542969 17.015625 28.675781 16.925781 C 28.757812 16.785156 28.761719 16.644531 28.691406 16.503906 C 26.007812 12.050781 20.296875 10.066406 15.359375 11.867188 C 14.890625 12.042969 14.433594 12.242188 13.964844 12.414062 C 13.914062 12.429688 13.804688 12.355469 13.761719 12.296875 C 13.742188 12.222656 13.753906 12.160156 13.800781 12.101562 C 14.027344 11.855469 14.285156 11.648438 14.574219 11.484375 C 16.742188 10.53125 18.980469 9.996094 21.375 10.40625 C 25.269531 11.070312 28.359375 12.914062 30.605469 16.238281 C 32.179688 18.609375 33.5 21.113281 34.574219 23.746094 C 34.683594 24.058594 34.8125 24.367188 34.957031 24.667969 C 35.15625 25.023438 35.40625 25.34375 35.636719 25.679688 C 35.867188 25.378906 36.058594 25.054688 36.210938 24.707031 C 37.019531 22.074219 38.0625 19.535156 39.339844 17.097656 C 41.019531 13.867188 43.203125 11.054688 46.367188 9.128906 C 47.433594 8.480469 48.550781 7.929688 49.714844 7.476562 C 53.410156 6.054688 56.957031 6.429688 60.1875 8.722656 C 61.296875 9.484375 62.515625 9.96875 63.847656 10.171875 C 68.683594 11.042969 71.960938 13.847656 73.847656 18.324219 C 74.25 19.25 74.492188 20.214844 74.5625 21.21875 C 74.933594 28.320312 73.464844 34.976562 69.566406 41.011719 C 69.433594 41.222656 69.285156 41.417969 69.109375 41.597656 C 68.980469 41.683594 68.84375 41.75 68.691406 41.789062 C 68.636719 41.640625 68.503906 41.472656 68.535156 41.351562 C 68.625 41.035156 68.75 40.730469 68.914062 40.441406 C 71.199219 36.386719 72.496094 32.015625 73.113281 27.429688 C 73.28125 26.191406 73.410156 24.949219 73.511719 23.707031 C 73.628906 22.269531 73.199219 20.902344 72.835938 19.535156 C 72.773438 19.3125 72.550781 19.136719 72.402344 18.9375 C 72.320312 19.132812 72.269531 19.332031 72.25 19.542969 C 72.507812 22.480469 72.203125 25.375 71.660156 28.253906 C 71.144531 30.992188 69.972656 33.480469 68.59375 35.882812 C 65.457031 41.34375 61.542969 46.214844 57.101562 50.652344 C 54.863281 52.894531 52.46875 54.984375 50.152344 57.15625 C 49.851562 57.433594 49.605469 57.773438 49.332031 58.082031 C 48.746094 58.539062 48.160156 58.988281 47.589844 59.464844 C 47.496094 59.542969 47.503906 59.738281 47.464844 59.878906 C 47.609375 59.855469 47.796875 59.878906 47.890625 59.804688 C 48.480469 59.34375 49.035156 58.84375 49.59375 58.355469 Z M 17.332031 46.277344 C 17.527344 46.582031 17.71875 46.894531 17.921875 47.191406 C 17.9375 47.21875 18.066406 47.191406 18.113281 47.167969 C 18.160156 47.140625 18.207031 47.015625 18.183594 46.992188 C 17.949219 46.714844 17.699219 46.445312 17.453125 46.175781 C 17.332031 45.78125 17.183594 45.398438 17.007812 45.027344 C 15.992188 43.300781 14.917969 41.609375 13.917969 39.882812 C 12.269531 36.972656 10.808594 33.984375 10.253906 30.636719 C 9.929688 28.691406 10.074219 26.824219 10.90625 25.03125 C 11.011719 24.90625 11.148438 24.851562 11.308594 24.871094 C 11.464844 24.921875 11.570312 25.023438 11.621094 25.179688 C 11.652344 25.429688 11.644531 25.675781 11.601562 25.925781 C 11.128906 29.097656 11.835938 32.078125 13.175781 34.914062 C 15.785156 40.4375 18.878906 45.675781 22.851562 50.34375 C 26.585938 54.734375 30.832031 58.648438 34.949219 62.664062 C 35.296875 63.027344 35.679688 63.347656 36.097656 63.628906 C 36.945312 64.140625 37.828125 64.609375 38.695312 65.09375 C 39.296875 64.523438 39.910156 63.964844 40.5 63.378906 C 40.917969 62.980469 41.304688 62.550781 41.660156 62.09375 C 46.15625 55.976562 50.667969 49.871094 55.109375 43.722656 C 57.753906 40.066406 60.121094 36.234375 61.914062 32.078125 C 63.363281 28.75 64.136719 25.269531 64.230469 21.640625 C 64.308594 18.515625 63.441406 15.722656 61.417969 13.308594 C 61.105469 12.914062 60.722656 12.605469 60.273438 12.382812 C 59.824219 12.15625 59.347656 12.035156 58.84375 12.019531 C 56.347656 11.824219 54.082031 12.535156 51.828125 13.445312 C 49.839844 14.226562 48.1875 15.457031 46.875 17.144531 C 45.15625 19.324219 43.835938 21.726562 42.917969 24.351562 C 42.046875 26.695312 41.300781 29.082031 40.6875 31.507812 C 40.179688 33.609375 39.386719 35.597656 38.308594 37.46875 C 38.082031 37.8125 37.769531 38.03125 37.367188 38.125 C 37.160156 38.171875 36.746094 37.855469 36.625 37.609375 C 35.78125 35.898438 34.875 34.203125 34.207031 32.421875 C 32.109375 26.835938 28.515625 22.476562 23.617188 19.148438 C 21.582031 17.746094 19.304688 16.949219 16.925781 16.390625 C 15.789062 16.132812 14.726562 16.234375 13.804688 16.847656 C 12.824219 17.476562 11.9375 18.222656 11.148438 19.082031 C 9.484375 20.945312 8.730469 23.238281 8.382812 25.6875 C 7.945312 28.832031 8.539062 31.828125 9.695312 34.742188 C 11.242188 38.660156 13.492188 42.152344 16.191406 45.367188 C 16.5 45.730469 16.949219 45.976562 17.332031 46.277344 Z M 70.65625 22.507812 C 70.671875 19.675781 70.511719 18.8125 69.605469 17.378906 C 68.691406 15.941406 67.492188 14.808594 66.003906 13.980469 C 65.847656 13.925781 65.691406 13.890625 65.527344 13.882812 C 65.484375 14.105469 65.34375 14.375 65.417969 14.542969 C 66.65625 17.375 66.949219 20.292969 66.707031 23.355469 C 66.351562 27.675781 64.953125 31.648438 63.042969 35.488281 C 60.984375 39.605469 58.355469 43.367188 55.683594 47.097656 C 54.226562 49.132812 52.738281 51.148438 51.269531 53.171875 C 51.113281 53.367188 50.96875 53.570312 50.832031 53.78125 C 50.773438 53.929688 50.730469 54.078125 50.710938 54.234375 C 50.917969 54.210938 51.195312 54.261719 51.328125 54.144531 C 57.8125 48.535156 63.378906 42.152344 67.613281 34.660156 C 69.710938 30.9375 70.683594 26.9375 70.65625 22.507812 Z M 1.898438 27.144531 C 1.929688 27.53125 1.949219 27.863281 1.988281 28.195312 C 2.414062 31.824219 3.660156 35.148438 5.71875 38.167969 C 8.09375 41.714844 10.832031 44.957031 13.9375 47.890625 C 14.710938 48.617188 15.570312 49.269531 16.390625 49.949219 C 16.285156 48.785156 15.210938 48.285156 14.652344 47.429688 C 14.40625 47.09375 14.140625 46.769531 13.859375 46.460938 C 10.925781 42.886719 8.5 38.996094 7.054688 34.59375 C 5.074219 28.574219 5.207031 22.777344 9.371094 17.558594 C 9.425781 17.5 9.472656 17.429688 9.507812 17.355469 C 9.566406 17.203125 9.675781 16.925781 9.640625 16.902344 C 9.457031 16.746094 9.242188 16.660156 9 16.644531 C 6.5625 17.160156 4.804688 18.59375 3.574219 20.714844 C 2.421875 22.722656 2.066406 24.933594 1.898438 27.144531 Z M 53.824219 8.957031 C 51.320312 8.941406 49.613281 9.515625 48.0625 10.59375 C 45.847656 12.152344 44.070312 14.109375 42.730469 16.464844 C 42.652344 16.613281 42.59375 16.765625 42.558594 16.925781 C 42.539062 16.996094 42.558594 17.136719 42.59375 17.152344 C 42.71875 17.203125 42.910156 17.285156 42.992188 17.226562 C 43.335938 16.992188 43.664062 16.734375 43.972656 16.457031 C 45.660156 14.945312 47.527344 13.707031 49.578125 12.746094 C 51.625 11.78125 53.769531 11.128906 56.007812 10.792969 C 56.410156 10.726562 56.789062 10.597656 57.148438 10.40625 C 57.351562 10.292969 56.785156 9.65625 56.144531 9.476562 C 55.1875 9.210938 54.207031 9.039062 53.824219 8.957031 Z M 37.796875 32.296875 L 38.148438 33.496094 C 39.050781 33.339844 38.890625 32.53125 39.101562 31.949219 C 39.15625 31.792969 39.203125 31.632812 39.246094 31.472656 C 40.488281 26.988281 41.820312 22.535156 44.339844 18.558594 C 44.378906 18.488281 44.40625 18.410156 44.421875 18.328125 C 44.421875 18.25 44.421875 18.101562 44.40625 18.097656 C 44.277344 18.066406 44.085938 18.003906 44.007812 18.066406 C 42.085938 19.679688 40.324219 21.4375 39.457031 23.867188 C 38.480469 26.59375 37.925781 29.40625 37.796875 32.296875 Z M 64.414062 11.207031 C 64.136719 11.089844 63.847656 10.949219 63.554688 10.847656 C 63.507812 10.832031 63.378906 10.921875 63.371094 10.976562 C 63.378906 11.0625 63.421875 11.128906 63.496094 11.171875 C 63.703125 11.292969 63.917969 11.398438 64.140625 11.488281 C 64.21875 11.503906 64.292969 11.488281 64.359375 11.441406 C 64.394531 11.417969 64.386719 11.332031 64.414062 11.207031 Z M 64.414062 11.207031 " fill-opacity="1" fill-rule="nonzero"/></g><g fill="#d2042d" fill-opacity="1"><g transform="translate(20.396378, 53.482554)"><g><path d="M 0.296875 -0.203125 C 0.296875 -0.296875 0.316406 -0.363281 0.359375 -0.40625 C 0.398438 -0.445312 0.457031 -0.46875 0.53125 -0.46875 C 0.601562 -0.46875 0.660156 -0.445312 0.703125 -0.40625 C 0.742188 -0.363281 0.765625 -0.296875 0.765625 -0.203125 C 0.765625 -0.117188 0.742188 -0.0507812 0.703125 0 C 0.660156 0.0390625 0.601562 0.0625 0.53125 0.0625 C 0.457031 0.0625 0.398438 0.0390625 0.359375 0 C 0.316406 -0.0390625 0.296875 -0.109375 0.296875 -0.203125 Z M 0.296875 -0.203125 "/></g></g></g></svg>