<svg xmlns="http://www.w3.org/2000/svg" xmlns:xlink="http://www.w3.org/1999/xlink" width="100" zoomAndPan="magnify" viewBox="0 0 75 74.999997" height="100" preserveAspectRatio="xMidYMid meet" version="1.0"><defs><g/><clipPath id="c5d3c6b8fb"><path d="M 0 47 L 31 47 L 31 67.363281 L 0 67.363281 Z M 0 47 " clip-rule="nonzero"/></clipPath><clipPath id="287a857943"><path d="M 5 60 L 8 60 L 8 67.363281 L 5 67.363281 Z M 5 60 " clip-rule="nonzero"/></clipPath><clipPath id="00176c1eaa"><path d="M 23 60 L 26 60 L 26 67.363281 L 23 67.363281 Z M 23 60 " clip-rule="nonzero"/></clipPath><clipPath id="a19963a3d1"><path d="M 46 49 L 75 49 L 75 67.363281 L 46 67.363281 Z M 46 49 " clip-rule="nonzero"/></clipPath><clipPath id="a2205034f1"><path d="M 51 60 L 55 60 L 55 67.363281 L 51 67.363281 Z M 51 60 " clip-rule="nonzero"/></clipPath><clipPath id="d2e1d0423e"><path d="M 67 60 L 71 60 L 71 67.363281 L 67 67.363281 Z M 67 60 " clip-rule="nonzero"/></clipPath><clipPath id="f020045caf"><path d="M 25 7.363281 L 45 7.363281 L 45 31 L 25 31 Z M 25 7.363281 " clip-rule="nonzero"/></clipPath></defs><path fill="#212121" d="M 18.953125 39.050781 C 17.765625 39.050781 16.703125 38.796875 15.769531 38.289062 C 14.867188 37.792969 14.226562 37.128906 13.777344 36.480469 C 13.5625 36.699219 13.328125 36.898438 13.070312 37.074219 C 12.347656 37.582031 11.472656 37.925781 10.472656 38.09375 C 8.851562 38.367188 7.417969 38.089844 7.359375 38.078125 C 6.8125 37.96875 6.417969 37.488281 6.417969 36.933594 L 6.417969 36.082031 C 6.417969 31.925781 9.816406 28.542969 13.992188 28.542969 L 16.765625 28.542969 C 20.945312 28.542969 24.34375 31.925781 24.34375 36.082031 L 24.34375 36.933594 C 24.34375 37.40625 24.054688 37.835938 23.609375 38.011719 C 21.898438 38.703125 20.339844 39.050781 18.953125 39.050781 Z M 23.171875 36.933594 Z M 15.078125 33.789062 C 15.097656 33.863281 15.460938 35.472656 16.921875 36.253906 C 18.152344 36.914062 19.859375 36.871094 22 36.125 L 22 36.082031 C 22 33.210938 19.652344 30.875 16.765625 30.875 L 13.992188 30.875 C 11.175781 30.875 8.875 33.101562 8.765625 35.878906 C 9.160156 35.886719 9.640625 35.871094 10.136719 35.785156 C 11.550781 35.53125 12.425781 34.832031 12.8125 33.644531 C 12.980469 33.132812 13.472656 32.792969 14.011719 32.832031 C 14.550781 32.871094 14.988281 33.261719 15.078125 33.789062 Z M 15.078125 33.789062 " fill-opacity="1" fill-rule="evenodd"/><g clip-path="url(#c5d3c6b8fb)"><path fill="#212121" d="M 29.578125 67.355469 L 1.179688 67.355469 C 0.53125 67.355469 0.0078125 66.832031 0.0078125 66.1875 L 0.0078125 60.996094 C 0.0078125 58.699219 0.914062 56.53125 2.554688 54.898438 C 4.195312 53.261719 6.375 52.363281 8.683594 52.363281 L 9.957031 52.363281 C 10.703125 51.328125 10.796875 49.953125 10.777344 49.175781 C 10.765625 48.757812 10.984375 48.363281 11.34375 48.148438 C 11.707031 47.929688 12.15625 47.925781 12.523438 48.128906 C 14.304688 49.128906 16.441406 49.121094 18.230469 48.101562 C 18.597656 47.890625 19.050781 47.898438 19.414062 48.113281 C 19.777344 48.332031 19.996094 48.726562 19.984375 49.148438 C 19.960938 49.933594 20.046875 51.316406 20.800781 52.363281 L 22.078125 52.363281 C 24.386719 52.363281 26.5625 53.261719 28.203125 54.898438 C 29.847656 56.53125 30.75 58.699219 30.75 60.996094 L 30.75 66.1875 C 30.75 66.832031 30.226562 67.355469 29.578125 67.355469 Z M 2.351562 65.023438 L 28.40625 65.023438 L 28.40625 60.996094 C 28.40625 57.523438 25.566406 54.695312 22.078125 54.695312 L 20.257812 54.695312 C 19.9375 54.695312 19.632812 54.566406 19.414062 54.339844 C 18.394531 53.289062 17.941406 51.976562 17.757812 50.839844 C 16.203125 51.324219 14.558594 51.332031 13.003906 50.863281 C 12.8125 52.039062 12.347656 53.304688 11.347656 54.339844 C 11.125 54.566406 10.820312 54.695312 10.503906 54.695312 L 8.683594 54.695312 C 5.191406 54.695312 2.351562 57.523438 2.351562 60.996094 Z M 2.351562 65.023438 " fill-opacity="1" fill-rule="evenodd"/></g><path fill="#212121" d="M 15.378906 58.859375 C 15.109375 58.859375 14.835938 58.765625 14.617188 58.578125 L 9.742188 54.414062 C 9.25 53.996094 9.191406 53.257812 9.613281 52.769531 C 10.035156 52.28125 10.773438 52.222656 11.265625 52.640625 L 15.378906 56.15625 L 19.492188 52.640625 C 19.984375 52.222656 20.726562 52.28125 21.144531 52.769531 C 21.566406 53.257812 21.511719 53.996094 21.019531 54.414062 L 16.144531 58.578125 C 15.921875 58.765625 15.652344 58.859375 15.378906 58.859375 Z M 15.378906 58.859375 " fill-opacity="1" fill-rule="evenodd"/><g clip-path="url(#287a857943)"><path fill="#212121" d="M 6.425781 67.355469 C 5.78125 67.355469 5.253906 66.832031 5.253906 66.1875 L 5.253906 61.625 C 5.253906 60.980469 5.78125 60.460938 6.425781 60.460938 C 7.074219 60.460938 7.597656 60.980469 7.597656 61.625 L 7.597656 66.1875 C 7.597656 66.832031 7.074219 67.355469 6.425781 67.355469 Z M 6.425781 67.355469 " fill-opacity="1" fill-rule="evenodd"/></g><g clip-path="url(#00176c1eaa)"><path fill="#212121" d="M 24.332031 67.355469 C 23.683594 67.355469 23.160156 66.832031 23.160156 66.1875 L 23.160156 61.625 C 23.160156 60.980469 23.683594 60.460938 24.332031 60.460938 C 24.980469 60.460938 25.503906 60.980469 25.503906 61.625 L 25.503906 66.1875 C 25.503906 66.832031 24.980469 67.355469 24.332031 67.355469 Z M 24.332031 67.355469 " fill-opacity="1" fill-rule="evenodd"/></g><path fill="#212121" d="M 55.019531 40.863281 C 54.3125 40.863281 53.84375 40.824219 53.804688 40.820312 C 53.199219 40.769531 52.730469 40.265625 52.730469 39.660156 L 52.730469 38.890625 C 52.730469 35.058594 55.863281 31.941406 59.710938 31.941406 L 62.226562 31.941406 C 66.074219 31.941406 69.207031 35.058594 69.207031 38.890625 L 69.207031 39.660156 C 69.207031 40.273438 68.726562 40.777344 68.121094 40.824219 C 67.640625 40.867188 66.382812 40.9375 65.046875 40.609375 C 63.773438 40.292969 62.753906 39.707031 62.019531 38.878906 C 61.179688 39.652344 59.847656 40.335938 57.746094 40.664062 C 56.722656 40.824219 55.746094 40.863281 55.019531 40.863281 Z M 68.046875 40.824219 C 68.046875 40.824219 68.042969 40.824219 68.042969 40.824219 C 68.042969 40.824219 68.046875 40.824219 68.046875 40.824219 Z M 68.054688 40.824219 C 68.054688 40.824219 68.050781 40.824219 68.050781 40.824219 C 68.050781 40.824219 68.054688 40.824219 68.054688 40.824219 Z M 59.710938 34.277344 C 57.273438 34.277344 55.273438 36.15625 55.089844 38.53125 C 57.113281 38.523438 60.394531 38.125 60.984375 36.328125 C 61.140625 35.847656 61.589844 35.523438 62.097656 35.523438 C 62.605469 35.523438 63.054688 35.847656 63.210938 36.328125 C 63.550781 37.367188 64.335938 38.027344 65.609375 38.34375 C 66.046875 38.453125 66.476562 38.5 66.847656 38.519531 C 66.65625 36.148438 64.65625 34.277344 62.226562 34.277344 Z M 59.710938 34.277344 " fill-opacity="1" fill-rule="evenodd"/><g clip-path="url(#a19963a3d1)"><path fill="#212121" d="M 73.84375 67.355469 L 48.09375 67.355469 C 47.445312 67.355469 46.921875 66.832031 46.921875 66.1875 L 46.921875 61.480469 C 46.921875 57.101562 50.496094 53.542969 54.894531 53.542969 L 55.996094 53.542969 C 56.625 52.632812 56.703125 51.445312 56.683594 50.765625 C 56.675781 50.34375 56.890625 49.953125 57.253906 49.734375 C 57.613281 49.519531 58.0625 49.511719 58.429688 49.71875 C 60.015625 50.609375 61.910156 50.597656 63.5 49.691406 C 63.867188 49.484375 64.320312 49.488281 64.683594 49.707031 C 65.046875 49.921875 65.265625 50.316406 65.253906 50.738281 C 65.234375 51.425781 65.304688 52.628906 65.941406 53.542969 L 67.042969 53.542969 C 71.4375 53.542969 75.015625 57.101562 75.015625 61.480469 L 75.015625 66.1875 C 75.015625 66.832031 74.492188 67.355469 73.84375 67.355469 Z M 49.265625 65.023438 L 72.671875 65.023438 L 72.671875 61.480469 C 72.671875 58.390625 70.148438 55.875 67.042969 55.875 L 65.390625 55.875 C 65.074219 55.875 64.769531 55.746094 64.546875 55.519531 C 63.640625 54.585938 63.222656 53.429688 63.035156 52.410156 C 61.683594 52.808594 60.253906 52.816406 58.902344 52.429688 C 58.714844 53.480469 58.28125 54.597656 57.390625 55.519531 C 57.167969 55.746094 56.863281 55.875 56.546875 55.875 L 54.894531 55.875 C 51.789062 55.875 49.265625 58.390625 49.265625 61.480469 Z M 49.265625 65.023438 " fill-opacity="1" fill-rule="evenodd"/></g><path fill="#212121" d="M 60.96875 59.652344 C 60.695312 59.652344 60.425781 59.558594 60.207031 59.371094 L 55.785156 55.59375 C 55.292969 55.175781 55.234375 54.4375 55.65625 53.949219 C 56.078125 53.460938 56.816406 53.402344 57.308594 53.824219 L 60.96875 56.945312 L 64.628906 53.824219 C 65.117188 53.402344 65.859375 53.460938 66.28125 53.949219 C 66.703125 54.4375 66.644531 55.175781 66.152344 55.59375 L 61.730469 59.371094 C 61.511719 59.558594 61.238281 59.652344 60.96875 59.652344 Z M 60.96875 59.652344 " fill-opacity="1" fill-rule="evenodd"/><g clip-path="url(#a2205034f1)"><path fill="#212121" d="M 52.851562 67.355469 C 52.203125 67.355469 51.679688 66.832031 51.679688 66.1875 L 51.679688 62.050781 C 51.679688 61.40625 52.203125 60.886719 52.851562 60.886719 C 53.496094 60.886719 54.023438 61.40625 54.023438 62.050781 L 54.023438 66.1875 C 54.023438 66.832031 53.496094 67.355469 52.851562 67.355469 Z M 52.851562 67.355469 " fill-opacity="1" fill-rule="evenodd"/></g><g clip-path="url(#d2e1d0423e)"><path fill="#212121" d="M 69.085938 67.355469 C 68.4375 67.355469 67.914062 66.832031 67.914062 66.1875 L 67.914062 62.050781 C 67.914062 61.40625 68.4375 60.886719 69.085938 60.886719 C 69.734375 60.886719 70.257812 61.40625 70.257812 62.050781 L 70.257812 66.1875 C 70.257812 66.832031 69.734375 67.355469 69.085938 67.355469 Z M 69.085938 67.355469 " fill-opacity="1" fill-rule="evenodd"/></g><path fill="#212121" d="M 64.484375 34.707031 L 63.382812 34.421875 C 63.007812 34.324219 62.617188 34.277344 62.226562 34.277344 L 59.710938 34.277344 C 59.320312 34.277344 58.929688 34.324219 58.554688 34.421875 L 57.453125 34.707031 L 57.136719 33.617188 C 57.03125 33.257812 56.980469 32.886719 56.980469 32.511719 C 56.980469 30.324219 58.769531 28.542969 60.96875 28.542969 C 63.167969 28.542969 64.957031 30.324219 64.957031 32.511719 C 64.957031 32.886719 64.90625 33.257812 64.800781 33.617188 Z M 59.710938 31.941406 L 62.226562 31.941406 C 62.320312 31.941406 62.417969 31.945312 62.511719 31.949219 C 62.28125 31.320312 61.675781 30.875 60.96875 30.875 C 60.261719 30.875 59.65625 31.324219 59.421875 31.949219 C 59.519531 31.945312 59.613281 31.941406 59.710938 31.941406 Z M 59.710938 31.941406 " fill-opacity="1" fill-rule="evenodd"/><g clip-path="url(#f020045caf)"><path fill="#212121" d="M 28.519531 30.738281 C 27.492188 30.738281 26.75 30.578125 26.710938 30.570312 C 26.175781 30.449219 25.792969 29.980469 25.792969 29.4375 C 25.789062 28.890625 26.164062 28.417969 26.695312 28.292969 C 28.003906 27.988281 28.300781 26.109375 28.371094 25.25 C 26.527344 23.285156 25.519531 20.78125 25.519531 18.148438 C 25.519531 15.261719 26.722656 12.546875 28.90625 10.511719 C 31.070312 8.496094 33.941406 7.386719 36.992188 7.386719 C 39.542969 7.386719 41.957031 8.15625 43.972656 9.605469 C 44.375 9.898438 44.550781 10.410156 44.410156 10.886719 C 44.269531 11.359375 43.839844 11.695312 43.34375 11.71875 C 38.496094 11.953125 34.699219 15.648438 34.699219 20.132812 C 34.699219 21.445312 35.015625 22.703125 35.636719 23.882812 C 36.234375 25.015625 37.109375 26.027344 38.164062 26.808594 C 38.570312 27.105469 38.738281 27.625 38.585938 28.101562 C 38.429688 28.578125 37.992188 28.902344 37.488281 28.910156 C 37.304688 28.914062 37.132812 28.914062 36.960938 28.910156 C 35.527344 28.871094 34.539062 28.707031 33.890625 28.542969 C 32.867188 29.734375 31.398438 30.464844 29.59375 30.675781 C 29.214844 30.71875 28.851562 30.738281 28.519531 30.738281 Z M 30.734375 24.808594 C 30.734375 25.035156 30.722656 26.078125 30.398438 27.199219 C 30.285156 27.585938 30.152344 27.933594 30.003906 28.242188 C 31.101562 27.980469 31.925781 27.414062 32.449219 26.554688 C 32.617188 26.285156 32.851562 26.070312 33.164062 26.003906 C 33.46875 25.933594 33.753906 25.972656 34.015625 26.136719 C 34.058594 26.15625 34.167969 26.199219 34.359375 26.253906 C 34.0625 25.839844 33.796875 25.410156 33.5625 24.964844 C 32.773438 23.472656 32.355469 21.800781 32.355469 20.132812 C 32.355469 15.574219 35.378906 11.652344 39.691406 10.09375 C 38.828125 9.847656 37.921875 9.722656 36.992188 9.722656 C 31.957031 9.722656 27.863281 13.503906 27.863281 18.148438 C 27.863281 20.320312 28.757812 22.382812 30.378906 23.957031 C 30.609375 24.183594 30.738281 24.492188 30.734375 24.808594 Z M 34.035156 26.148438 Z M 34.035156 26.148438 " fill-opacity="1" fill-rule="evenodd"/></g><path fill="#212121" d="M 52.304688 32.722656 C 51.972656 32.722656 51.609375 32.707031 51.226562 32.660156 C 49.421875 32.453125 47.957031 31.71875 46.933594 30.527344 C 46.285156 30.691406 45.292969 30.855469 43.863281 30.894531 C 42.289062 30.9375 40.761719 30.667969 39.316406 30.097656 C 37.929688 29.546875 36.6875 28.746094 35.625 27.710938 C 34.601562 26.722656 33.796875 25.570312 33.234375 24.292969 C 32.652344 22.96875 32.355469 21.570312 32.355469 20.132812 C 32.355469 17.246094 33.558594 14.535156 35.746094 12.5 C 37.90625 10.484375 40.78125 9.375 43.828125 9.375 C 46.878906 9.375 49.75 10.484375 51.914062 12.5 C 54.101562 14.535156 55.304688 17.246094 55.304688 20.132812 C 55.304688 22.828125 54.25 25.382812 52.328125 27.367188 C 52.339844 27.65625 52.484375 28.269531 52.859375 28.953125 C 53.304688 29.769531 53.820312 30.207031 54.128906 30.277344 C 54.660156 30.402344 55.035156 30.878906 55.03125 31.421875 C 55.027344 31.96875 54.648438 32.4375 54.113281 32.554688 C 54.074219 32.5625 53.332031 32.722656 52.304688 32.722656 Z M 47.378906 27.957031 C 47.472656 27.957031 47.566406 27.964844 47.660156 27.988281 C 47.96875 28.058594 48.207031 28.269531 48.371094 28.539062 C 48.910156 29.421875 49.761719 29.992188 50.902344 30.242188 C 50.753906 29.996094 50.644531 29.769531 50.566406 29.597656 C 50.269531 28.960938 49.644531 27.351562 50.222656 26.242188 C 50.277344 26.128906 50.355469 26.03125 50.445312 25.941406 C 52.066406 24.367188 52.960938 22.304688 52.960938 20.132812 C 52.960938 15.488281 48.863281 11.707031 43.832031 11.707031 C 38.796875 11.707031 34.699219 15.488281 34.699219 20.132812 C 34.699219 22.34375 35.609375 24.441406 37.257812 26.039062 C 39.007812 27.730469 41.328125 28.628906 43.796875 28.5625 C 45.824219 28.507812 46.675781 28.179688 46.804688 28.121094 C 46.984375 28.007812 47.179688 27.957031 47.378906 27.957031 Z M 46.789062 28.132812 Z M 46.789062 28.132812 " fill-opacity="1" fill-rule="evenodd"/><path fill="#212121" d="M 39.671875 21.300781 L 38.335938 21.300781 C 37.6875 21.300781 37.164062 20.777344 37.164062 20.132812 C 37.164062 19.488281 37.6875 18.96875 38.335938 18.96875 L 39.671875 18.96875 C 40.320312 18.96875 40.84375 19.488281 40.84375 20.132812 C 40.84375 20.777344 40.320312 21.300781 39.671875 21.300781 Z M 39.671875 21.300781 " fill-opacity="1" fill-rule="evenodd"/><path fill="#212121" d="M 44.496094 21.300781 L 43.164062 21.300781 C 42.515625 21.300781 41.992188 20.777344 41.992188 20.132812 C 41.992188 19.488281 42.515625 18.96875 43.164062 18.96875 L 44.496094 18.96875 C 45.144531 18.96875 45.667969 19.488281 45.667969 20.132812 C 45.667969 20.777344 45.144531 21.300781 44.496094 21.300781 Z M 44.496094 21.300781 " fill-opacity="1" fill-rule="evenodd"/><path fill="#212121" d="M 49.324219 21.300781 L 47.988281 21.300781 C 47.339844 21.300781 46.816406 20.777344 46.816406 20.132812 C 46.816406 19.488281 47.339844 18.96875 47.988281 18.96875 L 49.324219 18.96875 C 49.972656 18.96875 50.496094 19.488281 50.496094 20.132812 C 50.496094 20.777344 49.972656 21.300781 49.324219 21.300781 Z M 49.324219 21.300781 " fill-opacity="1" fill-rule="evenodd"/><path fill="#33cc99" d="M 15.378906 58.859375 C 15.109375 58.859375 14.835938 58.765625 14.617188 58.578125 L 10.070312 54.695312 L 8.683594 54.695312 C 5.191406 54.695312 2.351562 57.523438 2.351562 60.996094 L 2.351562 65.023438 L 5.253906 65.023438 L 5.253906 61.625 C 5.253906 60.980469 5.78125 60.460938 6.425781 60.460938 C 7.074219 60.460938 7.597656 60.980469 7.597656 61.625 L 7.597656 65.023438 L 23.160156 65.023438 L 23.160156 61.625 C 23.160156 60.980469 23.6875 60.460938 24.332031 60.460938 C 24.980469 60.460938 25.503906 60.980469 25.503906 61.625 L 25.503906 65.023438 L 28.40625 65.023438 L 28.40625 60.996094 C 28.40625 57.523438 25.570312 54.695312 22.078125 54.695312 L 20.691406 54.695312 L 16.144531 58.578125 C 15.921875 58.765625 15.652344 58.859375 15.378906 58.859375 Z M 15.378906 58.859375 " fill-opacity="1" fill-rule="evenodd"/><path fill="#ffcc99" d="M 12.523438 48.128906 C 14.304688 49.128906 16.441406 49.121094 18.230469 48.101562 C 18.246094 48.09375 18.261719 48.085938 18.277344 48.078125 C 20.351562 46.875 22 44.292969 22 40.148438 L 22 38.574219 C 20.910156 38.890625 19.890625 39.050781 18.953125 39.050781 C 17.984375 39.050781 17.09375 38.882812 16.296875 38.542969 C 16.292969 38.542969 16.292969 38.539062 16.292969 38.539062 C 16.113281 38.464844 15.941406 38.382812 15.769531 38.289062 C 15.085938 37.914062 14.484375 37.40625 13.988281 36.769531 C 13.914062 36.675781 13.84375 36.578125 13.777344 36.480469 C 13.5625 36.699219 13.324219 36.898438 13.070312 37.074219 C 12.347656 37.582031 11.472656 37.925781 10.472656 38.09375 C 9.851562 38.199219 9.257812 38.222656 8.757812 38.210938 L 8.757812 40.148438 C 8.757812 42.925781 9.496094 45.226562 10.890625 46.804688 C 11.351562 47.328125 11.878906 47.761719 12.449219 48.09375 C 12.472656 48.105469 12.5 48.117188 12.523438 48.128906 Z M 12.523438 48.128906 " fill-opacity="1" fill-rule="evenodd"/><path fill="#ffcc99" d="M 55.074219 42.574219 C 55.074219 45.066406 55.734375 47.128906 56.980469 48.539062 C 57.390625 49.007812 57.859375 49.390625 58.363281 49.683594 C 58.386719 49.695312 58.410156 49.707031 58.429688 49.71875 C 60.015625 50.609375 61.910156 50.597656 63.5 49.691406 C 63.507812 49.6875 63.519531 49.683594 63.527344 49.675781 C 65.382812 48.609375 66.863281 46.292969 66.863281 42.574219 L 66.863281 40.855469 C 66.328125 40.835938 65.695312 40.769531 65.042969 40.609375 C 63.773438 40.292969 62.753906 39.707031 62.019531 38.878906 C 61.179688 39.652344 59.847656 40.335938 57.746094 40.664062 C 56.75 40.820312 55.792969 40.863281 55.074219 40.863281 Z M 55.074219 42.574219 " fill-opacity="1" fill-rule="evenodd"/><path fill="#ffb986" d="M 62.140625 52.617188 C 61.460938 52.726562 60.773438 52.746094 60.089844 52.667969 C 59.6875 52.621094 59.289062 52.542969 58.902344 52.433594 C 58.777344 53.128906 58.542969 53.855469 58.140625 54.535156 L 60.96875 56.945312 L 63.796875 54.53125 C 63.390625 53.835938 63.160156 53.09375 63.035156 52.414062 C 62.746094 52.5 62.449219 52.566406 62.148438 52.613281 C 62.144531 52.617188 62.140625 52.617188 62.140625 52.617188 Z M 62.140625 52.617188 " fill-opacity="1" fill-rule="evenodd"/><path fill="#ff6666" d="M 61.730469 59.371094 C 61.511719 59.558594 61.238281 59.652344 60.96875 59.652344 C 60.695312 59.652344 60.425781 59.558594 60.207031 59.371094 L 56.113281 55.875 L 54.894531 55.875 C 51.789062 55.875 49.265625 58.390625 49.265625 61.480469 L 49.265625 65.023438 L 51.679688 65.023438 L 51.679688 62.050781 C 51.679688 61.40625 52.203125 60.886719 52.851562 60.886719 C 53.496094 60.886719 54.023438 61.40625 54.023438 62.050781 L 54.023438 65.023438 L 67.914062 65.023438 L 67.914062 62.050781 C 67.914062 61.40625 68.4375 60.886719 69.085938 60.886719 C 69.734375 60.886719 70.257812 61.40625 70.257812 62.050781 L 70.257812 65.023438 L 72.671875 65.023438 L 72.671875 61.480469 C 72.671875 58.390625 70.148438 55.875 67.042969 55.875 L 65.824219 55.875 Z M 61.730469 59.371094 " fill-opacity="1" fill-rule="evenodd"/><path fill="#ffb986" d="M 15.378906 56.15625 L 18.65625 53.359375 C 18.152344 52.535156 17.890625 51.644531 17.757812 50.84375 C 17.367188 50.964844 16.972656 51.054688 16.570312 51.117188 C 16.566406 51.117188 16.5625 51.117188 16.558594 51.117188 C 15.863281 51.222656 15.160156 51.238281 14.46875 51.160156 C 14.464844 51.160156 14.460938 51.160156 14.460938 51.160156 C 13.964844 51.105469 13.476562 51.007812 13.003906 50.867188 C 12.871094 51.691406 12.601562 52.558594 12.105469 53.359375 Z M 15.378906 56.15625 " fill-opacity="1" fill-rule="evenodd"/><path fill="#cccccc" d="M 38.214844 26.847656 C 39.816406 28.015625 41.753906 28.617188 43.796875 28.5625 C 45.824219 28.507812 46.675781 28.179688 46.804688 28.125 C 46.984375 28.007812 47.179688 27.957031 47.378906 27.957031 C 47.816406 27.957031 48.144531 28.164062 48.371094 28.539062 C 48.910156 29.421875 49.761719 29.992188 50.902344 30.242188 C 50.367188 29.328125 49.585938 27.460938 50.222656 26.242188 C 50.277344 26.128906 50.355469 26.03125 50.445312 25.941406 C 52.066406 24.367188 52.960938 22.304688 52.960938 20.132812 C 52.960938 15.488281 48.863281 11.707031 43.828125 11.707031 C 43.671875 11.707031 43.511719 11.710938 43.355469 11.71875 C 43.351562 11.71875 43.347656 11.71875 43.34375 11.71875 C 43.285156 11.722656 43.222656 11.722656 43.164062 11.726562 C 38.4375 12.046875 34.699219 15.695312 34.699219 20.132812 C 34.699219 20.253906 34.703125 20.375 34.707031 20.496094 C 34.792969 22.371094 35.542969 24.128906 36.769531 25.527344 C 36.773438 25.53125 36.773438 25.53125 36.777344 25.535156 C 36.929688 25.707031 37.089844 25.875 37.257812 26.039062 C 37.359375 26.136719 37.460938 26.230469 37.5625 26.320312 C 37.773438 26.507812 37.992188 26.683594 38.214844 26.847656 Z M 49.324219 21.300781 L 47.988281 21.300781 C 47.339844 21.300781 46.816406 20.777344 46.816406 20.132812 C 46.816406 19.488281 47.339844 18.96875 47.988281 18.96875 L 49.324219 18.96875 C 49.972656 18.96875 50.496094 19.488281 50.496094 20.132812 C 50.496094 20.777344 49.972656 21.300781 49.324219 21.300781 Z M 44.496094 21.300781 L 43.164062 21.300781 C 42.515625 21.300781 41.992188 20.777344 41.992188 20.132812 C 41.992188 19.488281 42.515625 18.96875 43.164062 18.96875 L 44.496094 18.96875 C 45.144531 18.96875 45.667969 19.488281 45.667969 20.132812 C 45.667969 20.777344 45.144531 21.300781 44.496094 21.300781 Z M 39.671875 21.300781 L 38.335938 21.300781 C 37.6875 21.300781 37.164062 20.777344 37.164062 20.132812 C 37.164062 19.488281 37.6875 18.96875 38.335938 18.96875 L 39.671875 18.96875 C 40.320312 18.96875 40.84375 19.488281 40.84375 20.132812 C 40.84375 20.777344 40.320312 21.300781 39.671875 21.300781 Z M 39.671875 21.300781 " fill-opacity="1" fill-rule="evenodd"/><path fill="#979797" d="M 33.234375 24.292969 C 32.25 22.054688 32.105469 19.640625 32.726562 17.40625 C 32.726562 17.402344 32.730469 17.402344 32.730469 17.398438 C 33.664062 14.050781 36.273438 11.328125 39.691406 10.09375 C 38.828125 9.847656 37.921875 9.722656 36.992188 9.722656 C 31.960938 9.722656 27.863281 13.503906 27.863281 18.148438 C 27.863281 20.320312 28.757812 22.382812 30.378906 23.957031 C 30.609375 24.183594 30.738281 24.492188 30.734375 24.808594 C 30.738281 25.597656 30.589844 27.027344 30.003906 28.242188 C 31.101562 27.980469 31.925781 27.414062 32.449219 26.554688 C 32.617188 26.285156 32.851562 26.074219 33.164062 26.003906 C 33.46875 25.9375 33.757812 25.972656 34.015625 26.136719 C 34.058594 26.15625 34.164062 26.199219 34.355469 26.25 C 33.921875 25.648438 33.542969 24.992188 33.234375 24.292969 Z M 33.234375 24.292969 " fill-opacity="1" fill-rule="evenodd"/><path fill="#312200" d="M 22 36.125 C 22 33.199219 19.65625 30.875 16.765625 30.875 L 13.992188 30.875 C 11.175781 30.875 8.875 33.101562 8.765625 35.878906 C 10.53125 35.929688 12.230469 35.425781 12.8125 33.644531 C 13.191406 32.488281 14.871094 32.605469 15.082031 33.789062 C 15.097656 33.863281 15.460938 35.472656 16.921875 36.253906 C 18.152344 36.914062 19.859375 36.871094 22 36.125 Z M 22 36.125 " fill-opacity="1" fill-rule="evenodd"/><path fill="#312200" d="M 58.453125 34.449219 C 56.617188 34.960938 55.238281 36.578125 55.089844 38.53125 C 57.113281 38.523438 60.394531 38.125 60.984375 36.328125 C 61.140625 35.847656 61.589844 35.523438 62.097656 35.523438 C 62.605469 35.523438 63.054688 35.847656 63.210938 36.328125 C 63.550781 37.367188 64.335938 38.027344 65.609375 38.34375 C 66.046875 38.453125 66.476562 38.5 66.847656 38.519531 C 66.691406 36.570312 65.316406 34.960938 63.480469 34.449219 L 63.382812 34.421875 C 63.074219 34.34375 62.757812 34.296875 62.441406 34.28125 C 62.371094 34.277344 62.296875 34.277344 62.226562 34.277344 L 59.710938 34.277344 C 59.640625 34.277344 59.570312 34.277344 59.503906 34.28125 C 59.183594 34.292969 58.863281 34.339844 58.554688 34.421875 L 58.457031 34.445312 Z M 58.453125 34.449219 " fill-opacity="1" fill-rule="evenodd"/><path fill="#463314" d="M 59.710938 31.941406 L 62.226562 31.941406 C 62.320312 31.941406 62.417969 31.945312 62.511719 31.949219 C 62.28125 31.320312 61.675781 30.875 60.96875 30.875 C 60.261719 30.875 59.65625 31.324219 59.421875 31.949219 C 59.519531 31.945312 59.613281 31.941406 59.710938 31.941406 Z M 59.710938 31.941406 " fill-opacity="1" fill-rule="evenodd"/><path fill="#212121" d="M 15.34375 51.207031 C 12.964844 51.207031 10.757812 50.191406 9.128906 48.34375 C 7.355469 46.335938 6.417969 43.5 6.417969 40.148438 L 6.417969 36.933594 C 6.417969 36.582031 6.574219 36.25 6.84375 36.03125 C 7.117188 35.808594 7.472656 35.71875 7.816406 35.789062 C 7.824219 35.789062 8.9375 35.996094 10.136719 35.78125 C 11.550781 35.53125 12.425781 34.832031 12.8125 33.644531 C 12.980469 33.132812 13.472656 32.792969 14.011719 32.832031 C 14.550781 32.871094 14.988281 33.261719 15.078125 33.789062 C 15.097656 33.863281 15.460938 35.472656 16.921875 36.253906 C 18.292969 36.988281 20.246094 36.851562 22.730469 35.851562 C 23.09375 35.703125 23.503906 35.746094 23.828125 35.964844 C 24.148438 36.179688 24.34375 36.542969 24.34375 36.933594 L 24.34375 40.148438 C 24.34375 43.484375 23.394531 46.316406 21.601562 48.332031 C 20.773438 49.265625 19.796875 49.988281 18.699219 50.484375 C 17.632812 50.964844 16.503906 51.207031 15.34375 51.207031 Z M 8.761719 38.210938 L 8.761719 40.148438 C 8.761719 42.925781 9.496094 45.226562 10.890625 46.804688 C 12.070312 48.140625 13.648438 48.875 15.34375 48.875 C 18.550781 48.875 22 46.144531 22 40.148438 L 22 38.574219 C 19.527344 39.292969 17.4375 39.199219 15.769531 38.289062 C 14.867188 37.796875 14.226562 37.132812 13.777344 36.480469 C 13.5625 36.699219 13.328125 36.898438 13.070312 37.078125 C 12.347656 37.582031 11.472656 37.925781 10.472656 38.09375 C 9.851562 38.199219 9.257812 38.222656 8.761719 38.210938 Z M 8.761719 38.210938 " fill-opacity="1" fill-rule="evenodd"/><path fill="#212121" d="M 60.9375 52.714844 C 58.746094 52.714844 56.71875 51.777344 55.21875 50.082031 C 53.589844 48.238281 52.730469 45.640625 52.730469 42.574219 L 52.730469 39.660156 C 52.730469 39.015625 53.253906 38.492188 53.902344 38.492188 C 54.550781 38.492188 55.074219 39.015625 55.074219 39.660156 L 55.074219 42.574219 C 55.074219 45.066406 55.734375 47.128906 56.980469 48.539062 C 58.027344 49.726562 59.433594 50.378906 60.9375 50.378906 C 63.789062 50.378906 66.863281 47.9375 66.863281 42.574219 L 66.863281 39.660156 C 66.863281 39.015625 67.386719 38.492188 68.035156 38.492188 C 68.679688 38.492188 69.207031 39.015625 69.207031 39.660156 L 69.207031 42.574219 C 69.207031 45.628906 68.335938 48.21875 66.691406 50.070312 C 65.929688 50.925781 65.03125 51.589844 64.023438 52.046875 C 63.042969 52.488281 62.003906 52.714844 60.9375 52.714844 Z M 60.9375 52.714844 " fill-opacity="1" fill-rule="evenodd"/><g fill="#d2042d" fill-opacity="1"><g transform="translate(20.396378, 53.482554)"><g><path d="M 0.296875 -0.203125 C 0.296875 -0.296875 0.316406 -0.363281 0.359375 -0.40625 C 0.398438 -0.445312 0.457031 -0.46875 0.53125 -0.46875 C 0.601562 -0.46875 0.660156 -0.445312 0.703125 -0.40625 C 0.742188 -0.363281 0.765625 -0.296875 0.765625 -0.203125 C 0.765625 -0.117188 0.742188 -0.0507812 0.703125 0 C 0.660156 0.0390625 0.601562 0.0625 0.53125 0.0625 C 0.457031 0.0625 0.398438 0.0390625 0.359375 0 C 0.316406 -0.0390625 0.296875 -0.109375 0.296875 -0.203125 Z M 0.296875 -0.203125 "/></g></g></g></svg>