<svg xmlns="http://www.w3.org/2000/svg" xmlns:xlink="http://www.w3.org/1999/xlink" width="100" zoomAndPan="magnify" viewBox="0 0 75 74.999997" height="100" preserveAspectRatio="xMidYMid meet" version="1.0"><defs><g/><clipPath id="4cc9e0b3a7"><path d="M 0 0 L 71.25 0 L 71.25 75 L 0 75 Z M 0 0 " clip-rule="nonzero"/></clipPath></defs><g clip-path="url(#4cc9e0b3a7)"><path fill="#242222" d="M 64.796875 16.808594 C 64.324219 17.082031 63.71875 16.917969 63.445312 16.445312 C 63.171875 15.96875 63.335938 15.363281 63.808594 15.089844 L 66.085938 13.773438 C 66.558594 13.5 67.167969 13.664062 67.4375 14.140625 C 67.710938 14.613281 67.546875 15.222656 67.074219 15.496094 Z M 67.605469 29.273438 C 67.054688 29.273438 66.609375 28.828125 66.609375 28.277344 C 66.609375 27.726562 67.054688 27.277344 67.605469 27.277344 L 70.230469 27.277344 C 70.78125 27.277344 71.226562 27.726562 71.226562 28.277344 C 71.226562 28.828125 70.78125 29.273438 70.230469 29.273438 Z M 63.808594 41.464844 L 66.085938 42.78125 C 66.558594 43.054688 67.167969 42.890625 67.4375 42.414062 C 67.710938 41.941406 67.546875 41.332031 67.074219 41.058594 L 64.796875 39.746094 C 64.324219 39.472656 63.71875 39.636719 63.445312 40.113281 C 63.171875 40.585938 63.335938 41.195312 63.808594 41.464844 Z M 21.136719 39.746094 L 18.863281 41.058594 C 18.386719 41.332031 18.222656 41.941406 18.496094 42.414062 C 18.769531 42.890625 19.375 43.054688 19.851562 42.78125 L 22.125 41.464844 C 22.601562 41.195312 22.765625 40.585938 22.492188 40.113281 C 22.21875 39.636719 21.613281 39.472656 21.136719 39.746094 Z M 18.332031 27.277344 C 18.882812 27.277344 19.328125 27.726562 19.328125 28.277344 C 19.328125 28.828125 18.882812 29.273438 18.332031 29.273438 L 15.703125 29.273438 C 15.152344 29.273438 14.707031 28.828125 14.707031 28.277344 C 14.707031 27.726562 15.152344 27.277344 15.703125 27.277344 Z M 22.125 15.085938 C 22.601562 15.363281 22.765625 15.96875 22.492188 16.445312 C 22.21875 16.917969 21.613281 17.082031 21.136719 16.808594 L 18.863281 15.496094 C 18.386719 15.222656 18.222656 14.613281 18.496094 14.136719 C 18.769531 13.664062 19.375 13.5 19.851562 13.773438 Z M 31.507812 6.429688 C 31.78125 6.90625 31.617188 7.511719 31.144531 7.785156 C 30.667969 8.058594 30.0625 7.894531 29.789062 7.417969 L 28.476562 5.140625 C 28.203125 4.664062 28.367188 4.058594 28.839844 3.785156 C 29.316406 3.511719 29.921875 3.675781 30.195312 4.152344 Z M 43.964844 3.621094 C 43.964844 4.171875 43.519531 4.617188 42.96875 4.617188 C 42.417969 4.617188 41.972656 4.171875 41.972656 3.621094 L 41.972656 0.992188 C 41.972656 0.441406 42.417969 -0.0078125 42.96875 -0.0078125 C 43.519531 -0.0078125 43.964844 0.441406 43.964844 0.992188 Z M 27.867188 17.070312 C 20.707031 24.234375 26.351562 32.386719 33.011719 39.050781 C 34.847656 40.886719 36.835938 42.671875 38.613281 44.269531 C 39.117188 44.722656 39.605469 45.160156 40.34375 45.832031 C 41.082031 46.507812 42.019531 46.84375 42.957031 46.84375 C 43.894531 46.839844 44.832031 46.5 45.570312 45.820312 C 46.367188 45.082031 46.933594 44.570312 47.519531 44.039062 C 49.28125 42.445312 51.207031 40.699219 52.960938 38.945312 C 59.671875 32.230469 65.203125 24.234375 58.042969 17.070312 C 56.164062 15.191406 53.765625 14.101562 51.285156 13.8125 C 48.773438 13.519531 46.175781 14.058594 43.945312 15.4375 C 43.320312 15.824219 42.59375 15.824219 41.964844 15.4375 C 39.742188 14.0625 37.140625 13.519531 34.621094 13.808594 C 32.148438 14.097656 29.753906 15.183594 27.867188 17.070312 Z M 13.378906 49.769531 C 26.859375 42.632812 27.273438 42.800781 34.386719 45.742188 C 36.761719 46.726562 39.933594 48.039062 44.792969 49.484375 C 46.144531 49.890625 47.210938 50.808594 47.835938 51.96875 C 48.070312 52.40625 48.246094 52.875 48.347656 53.363281 L 57.574219 47.308594 C 60.359375 45.480469 63.558594 45.742188 65.730469 46.941406 C 66.4375 47.332031 67.042969 47.824219 67.503906 48.386719 C 69.25 50.515625 68.542969 52.949219 66.210938 54.480469 C 65.046875 55.242188 63.511719 56.378906 61.757812 57.679688 C 55.0625 62.632812 45.226562 69.917969 40.207031 68.359375 L 25.207031 63.710938 C 24.90625 63.617188 24.601562 63.722656 24.421875 63.988281 L 23.835938 64.871094 L 24.152344 65.328125 C 24.574219 65.933594 24.707031 66.65625 24.585938 67.328125 C 24.460938 68.007812 24.082031 68.640625 23.476562 69.058594 L 15.71875 74.4375 C 15.113281 74.859375 14.390625 74.992188 13.71875 74.871094 C 13.042969 74.746094 12.410156 74.367188 11.992188 73.761719 L 0.589844 57.296875 C 0.171875 56.6875 0.0351562 55.96875 0.160156 55.292969 C 0.28125 54.613281 0.660156 53.984375 1.269531 53.5625 L 9.023438 48.183594 C 9.628906 47.765625 10.351562 47.628906 11.023438 47.753906 C 11.699219 47.875 12.332031 48.257812 12.753906 48.863281 Z M 56.144531 7.417969 C 55.875 7.894531 55.265625 8.058594 54.792969 7.785156 C 54.316406 7.511719 54.152344 6.90625 54.425781 6.429688 L 55.738281 4.152344 C 56.011719 3.675781 56.621094 3.511719 57.09375 3.785156 C 57.570312 4.058594 57.734375 4.664062 57.460938 5.140625 Z M 56.144531 7.417969 " fill-opacity="1" fill-rule="evenodd"/></g><path fill="#e23416" d="M 34.847656 15.789062 C 32.808594 16.023438 30.832031 16.921875 29.277344 18.480469 C 23.316406 24.445312 28.453125 31.667969 34.421875 37.640625 C 36.320312 39.539062 38.226562 41.253906 39.9375 42.789062 C 40.71875 43.488281 41.878906 44.859375 42.957031 44.859375 C 44.050781 44.855469 45.386719 43.292969 46.1875 42.570312 C 47.875 41.039062 49.714844 39.375 51.554688 37.535156 C 57.5625 31.523438 62.59375 24.441406 56.636719 18.480469 C 55.082031 16.925781 53.105469 16.027344 51.0625 15.789062 C 48.976562 15.550781 46.824219 15.992188 44.988281 17.128906 C 43.714844 17.914062 42.195312 17.914062 40.925781 17.128906 C 39.089844 15.992188 36.9375 15.546875 34.847656 15.789062 Z M 34.847656 15.789062 " fill-opacity="1" fill-rule="evenodd"/><path fill="#eb4e2f" d="M 34.847656 15.789062 C 32.808594 16.023438 30.832031 16.921875 29.277344 18.480469 C 23.316406 24.445312 28.453125 31.667969 34.421875 37.640625 C 36.320312 39.539062 38.226562 41.253906 39.9375 42.789062 C 40.28125 43.097656 40.699219 43.539062 41.15625 43.933594 C 44.539062 39.015625 46.519531 33.054688 46.519531 26.628906 C 46.519531 23.308594 45.988281 20.109375 45.007812 17.117188 L 44.988281 17.128906 C 43.714844 17.914062 42.195312 17.914062 40.925781 17.128906 C 39.089844 15.992188 36.9375 15.546875 34.847656 15.789062 Z M 34.847656 15.789062 " fill-opacity="1" fill-rule="evenodd"/><path fill="#f5c4ae" d="M 29.253906 55.75 C 28.726562 55.601562 28.417969 55.050781 28.566406 54.523438 C 28.714844 53.992188 29.261719 53.6875 29.792969 53.835938 L 42.414062 57.414062 C 43.257812 57.652344 44.121094 57.535156 44.835938 57.148438 C 45.535156 56.769531 46.09375 56.125 46.335938 55.300781 C 46.574219 54.507812 46.480469 53.648438 46.085938 52.910156 C 45.703125 52.203125 45.050781 51.640625 44.222656 51.394531 C 39.304688 49.929688 36.058594 48.585938 33.632812 47.582031 C 27.371094 44.992188 26.96875 44.828125 14.519531 51.417969 L 22.617188 63.109375 C 23.003906 62.527344 23.378906 62.09375 24.105469 61.835938 C 24.632812 61.648438 25.21875 61.632812 25.789062 61.808594 L 40.792969 66.457031 C 44.855469 67.71875 54.207031 60.792969 60.574219 56.082031 C 62.386719 54.738281 63.964844 53.570312 65.121094 52.8125 C 66.414062 51.964844 66.964844 50.859375 65.972656 49.648438 C 65.671875 49.285156 65.261719 48.957031 64.773438 48.6875 C 63.152344 47.792969 60.757812 47.601562 58.664062 48.976562 L 48.265625 55.804688 C 47.875 57.144531 47.007812 58.234375 45.777344 58.902344 C 44.625 59.523438 43.234375 59.714844 41.878906 59.328125 Z M 29.253906 55.75 " fill-opacity="1" fill-rule="evenodd"/><path fill="#ffd6c3" d="M 28.578125 54.484375 C 28.742188 53.976562 29.277344 53.6875 29.792969 53.835938 L 29.875 53.859375 C 32.449219 52.539062 34.8125 50.863281 36.898438 48.898438 C 35.652344 48.417969 34.578125 47.972656 33.632812 47.582031 C 27.371094 44.992188 26.96875 44.828125 14.519531 51.417969 L 18.453125 57.097656 C 22.039062 56.808594 25.449219 55.902344 28.578125 54.484375 Z M 28.578125 54.484375 " fill-opacity="1" fill-rule="evenodd"/><path fill="#5a9de0" d="M 16.832031 67.28125 C 17.144531 67.730469 17.035156 68.347656 16.585938 68.664062 C 16.136719 68.976562 15.519531 68.867188 15.203125 68.417969 L 15.144531 68.332031 C 14.832031 67.882812 14.941406 67.265625 15.390625 66.949219 C 15.839844 66.636719 16.457031 66.746094 16.773438 67.195312 Z M 11.117188 49.992188 C 10.898438 49.679688 10.464844 49.601562 10.152344 49.820312 L 2.398438 55.199219 C 2.082031 55.417969 2.007812 55.851562 2.226562 56.164062 L 13.625 72.628906 C 13.84375 72.945312 14.277344 73.019531 14.589844 72.804688 L 22.347656 67.421875 C 22.660156 67.207031 22.734375 66.769531 22.519531 66.457031 C 18.71875 60.972656 14.917969 55.480469 11.117188 49.992188 Z M 11.117188 49.992188 " fill-opacity="1" fill-rule="evenodd"/><path fill="#72b2f2" d="M 16.105469 57.199219 C 16.0625 57.199219 16.019531 57.199219 15.976562 57.199219 C 11.496094 57.199219 7.238281 56.234375 3.40625 54.5 L 10.152344 49.820312 C 10.464844 49.601562 10.898438 49.679688 11.117188 49.992188 C 12.78125 52.394531 14.445312 54.796875 16.105469 57.199219 Z M 16.105469 57.199219 " fill-opacity="1" fill-rule="evenodd"/><g fill="#d2042d" fill-opacity="1"><g transform="translate(20.396378, 53.482554)"><g><path d="M 0.296875 -0.203125 C 0.296875 -0.296875 0.316406 -0.363281 0.359375 -0.40625 C 0.398438 -0.445312 0.457031 -0.46875 0.53125 -0.46875 C 0.601562 -0.46875 0.660156 -0.445312 0.703125 -0.40625 C 0.742188 -0.363281 0.765625 -0.296875 0.765625 -0.203125 C 0.765625 -0.117188 0.742188 -0.0507812 0.703125 0 C 0.660156 0.0390625 0.601562 0.0625 0.53125 0.0625 C 0.457031 0.0625 0.398438 0.0390625 0.359375 0 C 0.316406 -0.0390625 0.296875 -0.109375 0.296875 -0.203125 Z M 0.296875 -0.203125 "/></g></g></g></svg>