<svg xmlns="http://www.w3.org/2000/svg" xmlns:xlink="http://www.w3.org/1999/xlink" width="100" zoomAndPan="magnify" viewBox="0 0 75 74.999997" height="100" preserveAspectRatio="xMidYMid meet" version="1.0"><defs><g/><clipPath id="f790319850"><path d="M 1 8 L 74 8 L 74 68.90625 L 1 68.90625 Z M 1 8 " clip-rule="nonzero"/></clipPath></defs><g clip-path="url(#f790319850)"><path fill="#ee2337" d="M 64.535156 11.167969 C 55.078125 5.949219 43.480469 9.976562 38.636719 20.164062 C 38.1875 21.105469 37.8125 22.289062 37.5 23.664062 C 37.1875 22.289062 36.8125 21.105469 36.363281 20.164062 C 31.519531 9.976562 19.921875 5.949219 10.464844 11.167969 C 3.3125 15.117188 0.00390625 23.640625 1.339844 32.011719 C 1.738281 34.503906 2.535156 36.78125 3.609375 38.878906 C 6.441406 44.414062 11.222656 48.722656 15.855469 52.617188 C 22.640625 58.316406 29.996094 63.996094 37.394531 68.722656 C 37.402344 68.804688 37.40625 68.851562 37.40625 68.851562 C 37.4375 68.832031 37.46875 68.808594 37.5 68.789062 C 37.53125 68.808594 37.5625 68.832031 37.59375 68.851562 C 37.59375 68.851562 37.597656 68.804688 37.605469 68.722656 C 45.003906 63.996094 52.359375 58.316406 59.144531 52.617188 C 63.777344 48.722656 68.558594 44.414062 71.390625 38.878906 C 72.464844 36.78125 73.261719 34.503906 73.660156 32.011719 C 74.996094 23.640625 71.6875 15.117188 64.535156 11.167969 " fill-opacity="1" fill-rule="nonzero"/></g><g fill="#d2042d" fill-opacity="1"><g transform="translate(20.396378, 53.482554)"><g><path d="M 0.296875 -0.203125 C 0.296875 -0.296875 0.316406 -0.363281 0.359375 -0.40625 C 0.398438 -0.445312 0.457031 -0.46875 0.53125 -0.46875 C 0.601562 -0.46875 0.660156 -0.445312 0.703125 -0.40625 C 0.742188 -0.363281 0.765625 -0.296875 0.765625 -0.203125 C 0.765625 -0.117188 0.742188 -0.0507812 0.703125 0 C 0.660156 0.0390625 0.601562 0.0625 0.53125 0.0625 C 0.457031 0.0625 0.398438 0.0390625 0.359375 0 C 0.316406 -0.0390625 0.296875 -0.109375 0.296875 -0.203125 Z M 0.296875 -0.203125 "/></g></g></g></svg>