<svg xmlns="http://www.w3.org/2000/svg" xmlns:xlink="http://www.w3.org/1999/xlink" width="40" zoomAndPan="magnify" viewBox="0 0 30 30.000001" height="40" preserveAspectRatio="xMidYMid meet" version="1.0"><defs><g/><clipPath id="f4e0e2ccbb"><path d="M 9 4 L 25.125 4 L 25.125 29 L 9 29 Z M 9 4 " clip-rule="nonzero"/></clipPath><clipPath id="f7ed7d84d2"><path d="M 5.527344 6 L 9 6 L 9 26 L 5.527344 26 Z M 5.527344 6 " clip-rule="nonzero"/></clipPath></defs><g clip-path="url(#f4e0e2ccbb)"><path fill="#ffffff" d="M 9.871094 6.898438 L 13.410156 28.945312 L 25.078125 22.757812 L 23.355469 4.835938 C 23.296875 4.84375 8.957031 7.035156 9.871094 6.898438 Z M 9.871094 6.898438 " fill-opacity="1" fill-rule="nonzero"/></g><g clip-path="url(#f7ed7d84d2)"><path fill="#ffffff" d="M 7.203125 6.898438 L 7.203125 6.871094 L 6.394531 6.859375 L 5.53125 25.519531 L 8.25 22.800781 Z M 7.203125 6.898438 " fill-opacity="1" fill-rule="nonzero"/></g><path fill="#ffffff" d="M 8.386719 6.894531 L 9.433594 22.847656 L 11.96875 27.289062 L 8.691406 6.898438 Z M 8.386719 6.894531 " fill-opacity="1" fill-rule="nonzero"/><path fill="#ffffff" d="M 6.089844 26.621094 L 11.367188 28.613281 L 8.726562 23.984375 Z M 6.089844 26.621094 " fill-opacity="1" fill-rule="nonzero"/><path fill="#ffffff" d="M 18.617188 4.367188 L 19.792969 4.183594 C 18.988281 1.109375 17.082031 0.113281 14.351562 0.96875 C 14.21875 1.011719 14.09375 1.070312 13.976562 1.140625 C 13.0625 0.59375 11.890625 0.53125 10.488281 0.96875 C 9.273438 1.347656 8.804688 2.785156 9.09375 5.234375 L 10.253906 5.054688 C 10.0625 3.367188 10.421875 2.183594 10.96875 1.980469 C 12.117188 1.546875 12.683594 1.707031 13.214844 2.035156 C 12.882812 2.765625 12.789062 3.824219 12.957031 5.234375 L 14.117188 5.054688 C 14.019531 4.171875 14.03125 3.453125 14.144531 2.9375 C 14.386719 3.316406 14.59375 3.785156 14.75 4.367188 L 15.929688 4.183594 C 15.695312 3.289062 15.371094 2.574219 14.953125 2.023438 C 16.875 1.507812 18.011719 2.136719 18.617188 4.367188 Z M 18.617188 4.367188 " fill-opacity="1" fill-rule="nonzero"/><g fill="#ffffff" fill-opacity="1"><g transform="translate(5.424393, 20.141936)"><g><path d="M 0.0625 -0.03125 C 0.0625 -0.0507812 0.0625 -0.0664062 0.0625 -0.078125 C 0.0703125 -0.0859375 0.0820312 -0.09375 0.09375 -0.09375 C 0.113281 -0.09375 0.125 -0.0859375 0.125 -0.078125 C 0.132812 -0.0664062 0.140625 -0.0507812 0.140625 -0.03125 C 0.140625 -0.0195312 0.132812 -0.0078125 0.125 0 C 0.125 0.0078125 0.113281 0.015625 0.09375 0.015625 C 0.0820312 0.015625 0.0703125 0.0078125 0.0625 0 C 0.0625 -0.0078125 0.0625 -0.0195312 0.0625 -0.03125 Z M 0.0625 -0.03125 "/></g></g></g></svg>