<svg xmlns="http://www.w3.org/2000/svg" xmlns:xlink="http://www.w3.org/1999/xlink" width="100" zoomAndPan="magnify" viewBox="0 0 75 74.999997" height="100" preserveAspectRatio="xMidYMid meet" version="1.0"><defs><g/></defs><path fill="#000000" d="M 61.480469 20.082031 C 61.402344 19.742188 61.097656 19.5 60.75 19.5 L 54 19.5 L 54 12 C 54 5.382812 48.617188 0 42 0 C 40.117188 0 38.339844 0.449219 36.75 1.226562 C 35.160156 0.449219 33.382812 0 31.5 0 C 24.882812 0 19.5 5.382812 19.5 12 L 19.5 19.5 L 12.886719 19.5 C 12.539062 19.5 12.238281 19.742188 12.15625 20.082031 C 8.148438 37.441406 6.796875 57.1875 6 74.214844 C 5.992188 74.421875 6.066406 74.621094 6.207031 74.765625 C 6.347656 74.917969 6.546875 75 6.75 75 L 56.34375 74.992188 L 68.34375 73.492188 C 68.730469 73.445312 69.019531 73.105469 69 72.714844 C 68.210938 55.78125 65.75 38.566406 61.480469 20.082031 Z M 67.414062 71.199219 C 64.964844 69.734375 62.496094 67.699219 62.464844 67.675781 C 62.296875 67.535156 62.074219 67.476562 61.859375 67.515625 C 61.644531 67.550781 61.457031 67.679688 61.34375 67.867188 C 61.328125 67.894531 59.839844 70.324219 56.925781 72.757812 C 56.136719 56.363281 54.773438 37.648438 51.035156 21 L 60.152344 21 C 64.1875 38.597656 66.558594 55.042969 67.414062 71.199219 Z M 66.242188 72.246094 L 58.722656 73.191406 C 60.425781 71.640625 61.566406 70.183594 62.15625 69.351562 C 63.007812 70.023438 64.585938 71.21875 66.242188 72.246094 Z M 42 1.5 C 47.789062 1.5 52.5 6.210938 52.5 12 L 52.5 19.5 L 43.5 19.5 L 43.5 12 C 43.5 7.933594 41.460938 4.335938 38.355469 2.164062 C 39.492188 1.742188 40.71875 1.5 42 1.5 Z M 42 19.5 L 31.5 19.5 L 31.5 12 C 31.5 8.125 33.617188 4.738281 36.75 2.921875 C 39.882812 4.738281 42 8.125 42 12 Z M 21 12 C 21 6.210938 25.710938 1.5 31.5 1.5 C 32.78125 1.5 34.007812 1.742188 35.144531 2.164062 C 32.039062 4.335938 30 7.933594 30 12 L 30 19.5 L 21 19.5 Z M 13.484375 21 L 19.5 21 L 19.5 26.25 C 19.5 26.664062 19.835938 27 20.25 27 C 20.664062 27 21 26.664062 21 26.25 L 21 21 L 42 21 L 42 26.25 C 42 26.664062 42.335938 27 42.75 27 C 43.164062 27 43.5 26.664062 43.5 26.25 L 43.5 21 L 49.503906 21 C 53.324219 37.84375 54.671875 56.90625 55.460938 73.5 L 7.535156 73.5 C 8.324219 56.910156 9.667969 37.835938 13.484375 21 Z M 43.601562 40.984375 C 42.300781 38.898438 40.28125 37.636719 38.0625 37.523438 C 34.382812 37.332031 32.417969 38.996094 31.5 40.207031 C 30.582031 38.992188 28.621094 37.332031 24.9375 37.523438 C 22.71875 37.636719 20.699219 38.902344 19.398438 40.984375 C 17.617188 43.847656 17.503906 47.621094 19.09375 51.339844 C 22.09375 58.355469 30.890625 61.335938 31.265625 61.460938 C 31.339844 61.484375 31.421875 61.5 31.5 61.5 C 31.578125 61.5 31.660156 61.484375 31.734375 61.460938 C 32.109375 61.335938 40.90625 58.355469 43.90625 51.339844 C 45.496094 47.621094 45.382812 43.847656 43.601562 40.984375 Z M 42.523438 50.753906 C 40.054688 56.535156 32.894531 59.433594 31.5 59.953125 C 30.105469 59.433594 22.945312 56.535156 20.476562 50.753906 C 19.082031 47.488281 19.152344 44.21875 20.671875 41.777344 C 21.710938 40.113281 23.292969 39.109375 25.015625 39.019531 C 25.183594 39.011719 25.347656 39.007812 25.503906 39.007812 C 29.605469 39.007812 30.75 41.820312 30.796875 41.9375 C 31.015625 42.523438 31.984375 42.523438 32.203125 41.9375 C 32.214844 41.90625 33.4375 38.769531 37.984375 39.019531 C 39.707031 39.109375 41.289062 40.113281 42.328125 41.777344 C 43.847656 44.21875 43.917969 47.488281 42.523438 50.753906 Z M 42.523438 50.753906 " fill-opacity="1" fill-rule="nonzero"/><g fill="#d2042d" fill-opacity="1"><g transform="translate(20.396378, 53.482554)"><g><path d="M 0.296875 -0.203125 C 0.296875 -0.296875 0.316406 -0.363281 0.359375 -0.40625 C 0.398438 -0.445312 0.457031 -0.46875 0.53125 -0.46875 C 0.601562 -0.46875 0.660156 -0.445312 0.703125 -0.40625 C 0.742188 -0.363281 0.765625 -0.296875 0.765625 -0.203125 C 0.765625 -0.117188 0.742188 -0.0507812 0.703125 0 C 0.660156 0.0390625 0.601562 0.0625 0.53125 0.0625 C 0.457031 0.0625 0.398438 0.0390625 0.359375 0 C 0.316406 -0.0390625 0.296875 -0.109375 0.296875 -0.203125 Z M 0.296875 -0.203125 "/></g></g></g></svg>