<svg xmlns="http://www.w3.org/2000/svg" xmlns:xlink="http://www.w3.org/1999/xlink" width="100" zoomAndPan="magnify" viewBox="0 0 75 74.999997" height="100" preserveAspectRatio="xMidYMid meet" version="1.0"><defs><g/><clipPath id="5ed8a1e097"><path d="M 0 17.003906 L 37.5 17.003906 L 37.5 54.140625 L 0 54.140625 Z M 0 17.003906 " clip-rule="nonzero"/></clipPath><clipPath id="9d24481eee"><path d="M 18.75 54.140625 L 0 17.003906 L 37.5 17.003906 Z M 18.75 54.140625 " clip-rule="nonzero"/></clipPath><clipPath id="5be48ea8e0"><path d="M 37.148438 17.003906 L 74.996094 17.003906 L 74.996094 54.410156 L 37.148438 54.410156 Z M 37.148438 17.003906 " clip-rule="nonzero"/></clipPath><clipPath id="262f89dc0a"><path d="M 56.109375 54.410156 L 37.222656 17.003906 L 74.996094 17.003906 Z M 56.109375 54.410156 " clip-rule="nonzero"/></clipPath></defs><g clip-path="url(#5ed8a1e097)"><g clip-path="url(#9d24481eee)"><path fill="#ebcab3" d="M 37.5 54.140625 L 0.0703125 54.140625 L 0.0703125 17.003906 L 37.5 17.003906 Z M 37.5 54.140625 " fill-opacity="1" fill-rule="nonzero"/></g></g><g fill="#d2042d" fill-opacity="1"><g transform="translate(20.396378, 53.482554)"><g><path d="M 0.296875 -0.203125 C 0.296875 -0.296875 0.316406 -0.363281 0.359375 -0.40625 C 0.398438 -0.445312 0.457031 -0.46875 0.53125 -0.46875 C 0.601562 -0.46875 0.660156 -0.445312 0.703125 -0.40625 C 0.742188 -0.363281 0.765625 -0.296875 0.765625 -0.203125 C 0.765625 -0.117188 0.742188 -0.0507812 0.703125 0 C 0.660156 0.0390625 0.601562 0.0625 0.53125 0.0625 C 0.457031 0.0625 0.398438 0.0390625 0.359375 0 C 0.316406 -0.0390625 0.296875 -0.109375 0.296875 -0.203125 Z M 0.296875 -0.203125 "/></g></g></g><g clip-path="url(#5be48ea8e0)"><g clip-path="url(#262f89dc0a)"><path fill="#ebcab3" d="M 74.996094 54.410156 L 37.292969 54.410156 L 37.292969 17.003906 L 74.996094 17.003906 Z M 74.996094 54.410156 " fill-opacity="1" fill-rule="nonzero"/></g></g></svg>